<?xml version="1.0" encoding="utf-8"?>
<!-- Generator: Adobe Illustrator 22.1.0, SVG Export Plug-In . SVG Version: 6.00 Build 0)  -->
<svg version="1.1" xmlns="http://www.w3.org/2000/svg" xmlns:xlink="http://www.w3.org/1999/xlink" x="0px" y="0px"
	 viewBox="0 0 500 500" style="enable-background:new 0 0 500 500;" xml:space="preserve">
<style type="text/css">
	.st0{fill:#CAE6FE;}
	.st1{fill:#61B3FF;}
	.st2{fill:#007CE6;}
	.st3{fill:#ABD3F2;}
	.st4{fill:#90C3EF;}
	.st5{fill:#18184B;}
	.st6{fill:#304E7E;}
	.st7{opacity:0.4;fill:#FFFFFF;}
	.st8{fill:#009EF3;}
	.st9{fill:#FDA893;}
	.st10{fill:#FFFFFF;}
	.st11{fill:#16162F;}
	.st12{fill:#2A3554;}
	.st13{fill:#EDEDED;}
	.st14{fill:#1D3062;}
	.st15{fill:#FB876B;}
	.st16{fill:#D45C48;}
	.st17{fill:#FBA691;}
	.st18{opacity:0.2;fill:#FFFFFF;}
</style>
<g id="OBJECTS">
	<g>
		<path className="st0" d="M273.1,89.8c0,1.4-0.6,2.7-1.5,3.6c-0.9,0.9-2.2,1.5-3.6,1.5H157.8c-2.8,0-5.1-2.3-5.1-5.2
			c0-1.4,0.6-2.7,1.5-3.6c0.9-0.9,2.2-1.5,3.6-1.5h5.2c2.1-4.8,6.8-8.1,12.3-8.1c3.7,0,7.1,1.5,9.5,4c3.2-5.5,9.2-9.2,16.1-9.2
			c1.9,0,3.7,0.3,5.4,0.8c3.6-6.7,10.7-11.3,18.8-11.3c9.8,0,18.1,6.6,20.5,15.6c1.8-0.9,3.8-1.4,6-1.4c6.1,0,11.3,4.1,12.9,9.7h3.3
			C270.8,84.6,273.1,86.9,273.1,89.8z"/>
		<path className="st0" d="M403.4,111.7c0,1-0.4,2-1.1,2.7c-0.7,0.7-1.6,1.1-2.7,1.1h-81c-2.1,0-3.8-1.7-3.8-3.8c0-1,0.4-2,1.1-2.7
			c0.7-0.7,1.6-1.1,2.7-1.1h3.8c1.5-3.5,5-6,9.1-6c2.7,0,5.2,1.1,7,2.9c2.4-4,6.8-6.8,11.8-6.8c1.4,0,2.7,0.2,4,0.6
			c2.6-5,7.8-8.3,13.8-8.3c7.2,0,13.3,4.9,15.1,11.5c1.3-0.7,2.8-1,4.4-1c4.5,0,8.3,3,9.5,7.1h2.4
			C401.7,107.9,403.4,109.6,403.4,111.7z"/>
		<path className="st0" d="M459.1,266.3c-1.4,0.3-2.7,0.7-4,1.4l-4.2-4.7l-5.1,4.6l4,4.5c-0.9,1.2-1.7,2.6-2.2,4l-7-0.4l-0.4,6.9
			l6.5,0.3c0.2,1.9,0.7,3.8,1.6,5.6l-4.7,4.2l4.6,5.1l4.5-4c1.5,1.1,3.1,1.9,4.8,2.4l-0.3,5.8l6.9,0.4l0.3-5.6c2-0.3,4-1,5.8-2.1
			l4,4.5l5.1-4.6l-4.2-4.7c0.8-1.2,1.4-2.5,1.8-3.8l6.6,0.3l0.4-6.9l-6.4-0.3c-0.3-2-1-4-2.1-5.8l4.5-4l-4.6-5.1l-4.7,4.2
			c-1.4-0.9-3-1.6-4.6-2l0.3-6.4l-6.9-0.4L459.1,266.3z M466.9,277.3c2.3,2.6,2.1,6.6-0.5,8.9c-2.6,2.3-6.6,2.1-8.9-0.5
			c-2.3-2.6-2.1-6.6,0.5-8.9C460.6,274.5,464.6,274.7,466.9,277.3z"/>
		<path className="st0" d="M68.6,152.7c-1.4,0.3-2.7,0.7-4,1.4l-4.2-4.7l-5.1,4.6l4,4.5c-0.9,1.2-1.7,2.6-2.2,4l-7-0.4l-0.4,6.9l6.5,0.3
			c0.2,1.9,0.7,3.8,1.6,5.6l-4.7,4.2l4.6,5.1l4.5-4c1.5,1.1,3.1,1.9,4.8,2.4l-0.3,5.8l6.9,0.4l0.3-5.6c2-0.3,4-1,5.8-2.1l4,4.5
			l5.1-4.6l-4.2-4.7c0.8-1.2,1.4-2.5,1.8-3.8l6.6,0.3l0.4-6.9l-6.4-0.3c-0.3-2-1-4-2.1-5.8l4.5-4l-4.6-5.1l-4.7,4.2
			c-1.4-0.9-3-1.6-4.6-2l0.3-6.4l-6.9-0.4L68.6,152.7z M76.3,163.6c2.3,2.6,2.1,6.6-0.5,8.9c-2.6,2.3-6.6,2.1-8.9-0.5
			c-2.3-2.6-2.1-6.6,0.5-8.9C70,160.8,74,161,76.3,163.6z"/>
		<path className="st0" d="M451.7,230.2c-0.7,0.1-1.5,0.4-2.2,0.8l-2.3-2.5l-2.8,2.5l2.2,2.4c-0.5,0.7-0.9,1.4-1.2,2.2l-3.8-0.2
			l-0.2,3.8l3.5,0.2c0.1,1.1,0.4,2.1,0.9,3.1l-2.6,2.3l2.5,2.8l2.4-2.2c0.8,0.6,1.7,1.1,2.6,1.3l-0.2,3.2l3.8,0.2l0.2-3.1
			c1.1-0.2,2.2-0.5,3.2-1.1l2.2,2.4l2.8-2.5l-2.3-2.6c0.4-0.7,0.7-1.3,1-2.1l3.6,0.2l0.2-3.8l-3.5-0.2c-0.2-1.1-0.5-2.2-1.1-3.2
			l2.4-2.2l-2.5-2.8l-2.5,2.3c-0.8-0.5-1.6-0.9-2.5-1.1l0.2-3.5l-3.8-0.2L451.7,230.2z M456,236.2c1.3,1.4,1.2,3.6-0.3,4.9
			c-1.4,1.3-3.6,1.2-4.9-0.3c-1.3-1.4-1.2-3.6,0.3-4.9C452.5,234.6,454.7,234.7,456,236.2z"/>
		<path className="st0" d="M42.5,197.9c-0.7,0.1-1.5,0.4-2.2,0.8l-2.3-2.5l-2.8,2.5l2.2,2.4c-0.5,0.7-0.9,1.4-1.2,2.2l-3.8-0.2l-0.2,3.8
			l3.5,0.2c0.1,1.1,0.4,2.1,0.9,3.1l-2.6,2.3l2.5,2.8l2.4-2.2c0.8,0.6,1.7,1.1,2.6,1.3l-0.2,3.2l3.8,0.2l0.2-3.1
			c1.1-0.2,2.2-0.5,3.2-1.1l2.2,2.4l2.8-2.5l-2.3-2.6c0.4-0.7,0.7-1.3,1-2.1l3.6,0.2l0.2-3.8l-3.5-0.2c-0.2-1.1-0.5-2.2-1.1-3.2
			l2.4-2.2l-2.5-2.8l-2.5,2.3c-0.8-0.5-1.6-0.9-2.5-1.1l0.2-3.5l-3.8-0.2L42.5,197.9z M46.7,203.8c1.3,1.4,1.2,3.6-0.3,4.9
			c-1.4,1.3-3.6,1.2-4.9-0.3c-1.3-1.4-1.2-3.6,0.3-4.9C43.2,202.3,45.4,202.4,46.7,203.8z"/>
	</g>
	<ellipse className="st0" cx="240.3" cy="434.7" rx="219.4" ry="16.3"/>
	<g>
		<g>
			<g>
				<path className="st1" d="M453,189.7c3.3,0,5.9,2.7,5.9,5.9c0,3.3-2.7,5.9-5.9,5.9c-3.3,0-5.9-2.7-5.9-5.9
					C447.1,192.3,449.7,189.7,453,189.7z M453,199.6c2.2,0,4.1-1.8,4.1-4.1c0-2.2-1.8-4.1-4.1-4.1c-2.2,0-4.1,1.8-4.1,4.1
					C448.9,197.8,450.7,199.6,453,199.6z"/>
			</g>
			<g>
				<g>
					<path className="st2" d="M426.9,172.4c3.3,0,5.9,2.7,5.9,5.9c0,3.3-2.7,5.9-5.9,5.9c-3.3,0-5.9-2.7-5.9-5.9
						C421,175,423.6,172.4,426.9,172.4z M426.9,182.3c2.2,0,4.1-1.8,4.1-4.1c0-2.2-1.8-4.1-4.1-4.1c-2.2,0-4.1,1.8-4.1,4.1
						C422.8,180.5,424.7,182.3,426.9,182.3z"/>
				</g>
			</g>
			<g>
				<g>
					<g>
						<path className="st1" d="M424.3,155.9c0.5,0,0.9,0.4,0.9,0.9v4.1c0,0.5-0.4,0.9-0.9,0.9s-0.9-0.4-0.9-0.9v-4.1
							C423.4,156.4,423.8,155.9,424.3,155.9z"/>
					</g>
					<g>
						<path className="st1" d="M424.3,148.8c0.5,0,0.9,0.4,0.9,0.9v4.1c0,0.5-0.4,0.9-0.9,0.9s-0.9-0.4-0.9-0.9v-4.1
							C423.4,149.2,423.8,148.8,424.3,148.8z"/>
					</g>
				</g>
				<g>
					<g>
						<path className="st1" d="M418.5,154.4h3.7c0.5,0,0.9,0.4,0.9,0.9c0,0.5-0.4,0.9-0.9,0.9h-3.7c-0.5,0-0.9-0.4-0.9-0.9
							C417.6,154.8,418,154.4,418.5,154.4z"/>
					</g>
					<g>
						<path className="st1" d="M426.4,154.4h3.7c0.5,0,0.9,0.4,0.9,0.9c0,0.5-0.4,0.9-0.9,0.9h-3.7c-0.5,0-0.9-0.4-0.9-0.9
							C425.4,154.8,425.9,154.4,426.4,154.4z"/>
					</g>
				</g>
			</g>
			<g>
				<g>
					<g>
						<g>
							<path className="st1" d="M456.4,171.4c0.5,0,0.9,0.4,0.9,0.9v4.1c0,0.5-0.4,0.9-0.9,0.9c-0.5,0-0.9-0.4-0.9-0.9v-4.1
								C455.4,171.8,455.8,171.4,456.4,171.4z"/>
						</g>
						<g>
							<path className="st1" d="M456.4,164.2c0.5,0,0.9,0.4,0.9,0.9v4.1c0,0.5-0.4,0.9-0.9,0.9c-0.5,0-0.9-0.4-0.9-0.9v-4.1
								C455.4,164.7,455.8,164.2,456.4,164.2z"/>
						</g>
					</g>
					<g>
						<g>
							<path className="st1" d="M450.6,169.9h3.7c0.5,0,0.9,0.4,0.9,0.9c0,0.5-0.4,0.9-0.9,0.9h-3.7c-0.5,0-0.9-0.4-0.9-0.9
								C449.7,170.3,450.1,169.9,450.6,169.9z"/>
						</g>
						<g>
							<path className="st1" d="M458.4,169.9h3.7c0.5,0,0.9,0.4,0.9,0.9c0,0.5-0.4,0.9-0.9,0.9h-3.7c-0.5,0-0.9-0.4-0.9-0.9
								C457.5,170.3,457.9,169.9,458.4,169.9z"/>
						</g>
					</g>
				</g>
			</g>
		</g>
		<g>
			<g>
				<g>
					<path className="st1" d="M101,108.2c-3.3,0-5.9-2.7-5.9-5.9c0-3.3,2.7-5.9,5.9-5.9s5.9,2.7,5.9,5.9
						C106.9,105.6,104.2,108.2,101,108.2z M101,106.4c2.2,0,4.1-1.8,4.1-4.1c0-2.2-1.8-4.1-4.1-4.1c-2.2,0-4.1,1.8-4.1,4.1
						C96.9,104.6,98.7,106.4,101,106.4z"/>
				</g>
			</g>
			<g>
				<g>
					<path className="st2" d="M119.2,125.7c-3.3,0-5.9-2.7-5.9-5.9c0-3.3,2.7-5.9,5.9-5.9c3.3,0,5.9,2.7,5.9,5.9
						C125.1,123.1,122.5,125.7,119.2,125.7z M119.2,123.9c2.2,0,4.1-1.8,4.1-4.1c0-2.2-1.8-4.1-4.1-4.1c-2.2,0-4.1,1.8-4.1,4.1
						C115.2,122.1,117,123.9,119.2,123.9z"/>
				</g>
			</g>
			<g>
				<g>
					<g>
						<path className="st1" d="M137.8,102.9c0-0.5-0.4-0.9-0.9-0.9h-4.1c-0.5,0-0.9,0.4-0.9,0.9c0,0.5,0.4,0.9,0.9,0.9h4.1
							C137.4,103.8,137.8,103.4,137.8,102.9z"/>
					</g>
					<g>
						<path className="st1" d="M145,102.9c0-0.5-0.4-0.9-0.9-0.9H140c-0.5,0-0.9,0.4-0.9,0.9c0,0.5,0.4,0.9,0.9,0.9h4.1
							C144.6,103.8,145,103.4,145,102.9z"/>
					</g>
				</g>
				<g>
					<g>
						<path className="st1" d="M139.4,108.6v-3.7c0-0.5-0.4-0.9-0.9-0.9c-0.5,0-0.9,0.4-0.9,0.9v3.7c0,0.5,0.4,0.9,0.9,0.9
							C139,109.5,139.4,109.1,139.4,108.6z"/>
					</g>
					<g>
						<path className="st1" d="M139.4,100.8v-3.7c0-0.5-0.4-0.9-0.9-0.9c-0.5,0-0.9,0.4-0.9,0.9v3.7c0,0.5,0.4,0.9,0.9,0.9
							C139,101.7,139.4,101.3,139.4,100.8z"/>
					</g>
				</g>
			</g>
			<g>
				<g>
					<g>
						<g>
							<path className="st1" d="M87.2,124.4c0-0.5-0.4-0.9-0.9-0.9h-4.1c-0.5,0-0.9,0.4-0.9,0.9c0,0.5,0.4,0.9,0.9,0.9h4.1
								C86.8,125.3,87.2,124.9,87.2,124.4z"/>
						</g>
						<g>
							<g>
								<path className="st1" d="M94.3,124.4c0-0.5-0.4-0.9-0.9-0.9h-4.1c-0.5,0-0.9,0.4-0.9,0.9c0,0.5,0.4,0.9,0.9,0.9h4.1
									C93.9,125.3,94.3,124.9,94.3,124.4z"/>
							</g>
						</g>
					</g>
					<g>
						<g>
							<path className="st1" d="M88.7,130.1v-3.7c0-0.5-0.4-0.9-0.9-0.9c-0.5,0-0.9,0.4-0.9,0.9v3.7c0,0.5,0.4,0.9,0.9,0.9
								C88.3,131.1,88.7,130.6,88.7,130.1z"/>
						</g>
						<g>
							<path className="st1" d="M88.7,122.3v-3.7c0-0.5-0.4-0.9-0.9-0.9c-0.5,0-0.9,0.4-0.9,0.9v3.7c0,0.5,0.4,0.9,0.9,0.9
								C88.3,123.2,88.7,122.8,88.7,122.3z"/>
						</g>
					</g>
				</g>
			</g>
		</g>
	</g>
	<g>
		<g>
			<g>
				<g>
					<path className="st3" d="M275,413.6c16.9-13.1,33.7-27.7,43.8-38.7c13.1-14.4,20.1-26.8,20.7-37c0-0.7-0.5-1.3-1.1-1.3
						c-0.7,0-1.3,0.5-1.3,1.1c-1.1,17.7-23.5,43.6-64.6,74.8L275,413.6z"/>
				</g>
			</g>
			<path className="st0" d="M329.3,361.1c0,0,6.8,7.6,19.7-4.8C349.1,356.2,335.4,347.5,329.3,361.1z"/>
			<path className="st0" d="M323,367.8c0,0,8-6.3-3.7-20C319.3,347.9,309.8,361.1,323,367.8z"/>
			<path className="st0" d="M336.6,345.3c0,0,9.6-3.3,3.1-20.1C339.8,325.2,326.5,334.5,336.6,345.3z"/>
			<path className="st0" d="M310.7,381.8c0,0,3.8,9.5,20.2,2.1C330.9,383.9,320.9,371.1,310.7,381.8z"/>
			<path className="st0" d="M303.2,387.7c0,0,9-4.9-0.2-20.3C303,367.4,291.4,378.8,303.2,387.7z"/>
			<path className="st0" d="M293.7,396.9c0,0,3.6,9.5,20.1,2.5C313.9,399.4,304.2,386.3,293.7,396.9z"/>
		</g>
		<g>
			<g>
				<path className="st3" d="M109.3,301.9c-12.1-17.6-23.8-36.6-30-50.1c-8.1-17.7-11-31.6-8.6-41.5c0.2-0.7,0.8-1.1,1.5-0.9
					c0.7,0.2,1.1,0.8,0.9,1.5c-4.3,17.3,9.2,48.6,39,90.8L109.3,301.9z"/>
			</g>
			<path className="st0" d="M73.4,235.4c0,0-8.8,5.2-17.3-10.6C56,224.8,71.7,220.7,73.4,235.4z"/>
			<path className="st0" d="M77.4,243.8c0,0-5.7-8.5,9.6-17.9C86.9,225.9,92,241.3,77.4,243.8z"/>
			<path className="st0" d="M71.2,218.2c0,0-8.2-6.1,3.1-20.1C74.2,198.1,84.1,211,71.2,218.2z"/>
			<path className="st0" d="M84.9,260.8c0,0-6.5,7.9-19.9-4.1C65,256.8,78.3,247.5,84.9,260.8z"/>
			<path className="st0" d="M90.2,268.7c0,0-7.1-7.4,6.3-19.3C96.6,249.5,104.2,263.8,90.2,268.7z"/>
			<path className="st0" d="M96.5,280.3c0,0-6.3,8-20-3.7C76.5,276.6,89.7,267.1,96.5,280.3z"/>
		</g>
		<g>
			<g>
				<path className="st3" d="M340.1,125.8c-15.6-0.4-19.7,14-31.2,10c-11.4-4-22.5,0.4-23.6,11c-1.1,10.7-1.3,18.6-14.3,19.4
					c-12.9,0.8-23.4,13.5-16.2,22.2c1.8,2.2,3.7,4.5,5.7,6.8c0.5,0.6,1,1.2,1.6,1.9c0.1,0.1,0.2,0.3,0.4,0.4
					c7.7,9.2,21.1,11.3,31.1,4.6c4-2.7,7-6.5,7.2-11.9c0.4-16.9,14.1-6.3,23.7-13.4c11-8.1,5.3-20,14.1-25.1
					C350.6,144.4,355.7,126.1,340.1,125.8z"/>
				<g>
					<path className="st4" d="M328,142.2l-67.5,52.9c0.5,0.6,1,1.2,1.6,1.9l67.4-52.9c0.5-0.4,0.6-1.2,0.2-1.7
						C329.3,141.8,328.5,141.7,328,142.2z"/>
				</g>
			</g>
			<g>
				<path className="st0" d="M288.7,95.8c-13.7,7.5-10,22-22,24.3c-11.9,2.3-19.3,11.7-14.9,21.4c4.4,9.8,8.2,16.7-2.6,23.9
					c-10.8,7.2-13.4,23.4-2.8,27.3c2.6,1,5.5,2,8.3,3c0.8,0.3,1.5,0.6,2.3,0.8c0.2,0.1,0.3,0.1,0.5,0.2c11.3,4.1,23.9-0.8,29.2-11.6
					c2.1-4.4,2.8-9.2,0.2-13.9c-8.1-14.8,9.1-12.6,13.7-23.5c5.4-12.5-5.4-19.9-0.4-28.8C307.1,106.6,302.3,88.3,288.7,95.8z"/>
				<g>
					<path className="st3" d="M286.5,116l-31.8,79.7c0.8,0.3,1.5,0.6,2.3,0.8l31.8-79.6c0.2-0.6-0.1-1.3-0.7-1.6
						C287.4,115.1,286.7,115.4,286.5,116z"/>
				</g>
			</g>
		</g>
		<g>
			<g>
				<path className="st3" d="M85.2,303.8c14.3,6.1,12.2,20.9,24.3,21.9c12.1,1,20.4,9.7,17,19.8c-3.4,10.2-6.5,17.4,5,23.6
					c11.4,6.1,15.7,21.9,5.6,26.8c-2.5,1.2-5.3,2.5-7.9,3.8c-0.7,0.4-1.5,0.7-2.2,1.1c-0.2,0.1-0.3,0.2-0.5,0.2
					c-10.8,5.2-23.9,1.6-30.2-8.6c-2.6-4.1-3.7-8.8-1.6-13.8c6.6-15.6-10.3-11.6-16-21.9c-6.6-11.9,3.4-20.4-2.5-28.7
					C67.9,316.4,70.9,297.7,85.2,303.8z"/>
				<g>
					<path className="st4" d="M89.4,323.7l39.7,76.1c-0.7,0.4-1.5,0.7-2.2,1.1l-39.6-76c-0.3-0.6-0.1-1.3,0.5-1.6
						C88.4,322.9,89.1,323.1,89.4,323.7z"/>
				</g>
			</g>
			<g>
				<path className="st0" d="M49.8,338.7c15.6,0.6,18.9,15.1,30.5,11.8c11.7-3.3,22.5,1.7,22.9,12.4c0.5,10.7,0.2,18.6,13.1,20.2
					c12.9,1.6,22.5,14.9,14.8,23.1c-1.9,2-4,4.3-6,6.4c-0.6,0.6-1.1,1.2-1.7,1.8c-0.1,0.1-0.3,0.3-0.4,0.4
					c-8.2,8.7-21.8,10-31.3,2.8c-3.9-2.9-6.6-6.9-6.5-12.3c0.6-16.9-13.7-7.1-22.8-14.8c-10.5-8.8-4.2-20.2-12.6-25.9
					C38.1,356.7,34.2,338.1,49.8,338.7z"/>
				<g>
					<path className="st3" d="M60.9,355.8l64.2,56.8c-0.6,0.6-1.1,1.2-1.7,1.8l-64.2-56.8c-0.5-0.4-0.5-1.2-0.1-1.7
						C59.6,355.4,60.4,355.3,60.9,355.8z"/>
				</g>
			</g>
		</g>
		<g>
			<g>
				<path className="st3" d="M422.9,432.8c2.4-11.2,14.6-3,23.2-9.5c11-8.1,5.3-20,14.1-25.1c12.2-7.2,17.2-25.5,1.7-25.8
					c-15.6-0.4-19.7,14-31.2,10c-11.4-4-22.5,0.4-23.6,11c-1.1,10.7-1.3,18.6-14.3,19.4c-11.9,0.8-21.7,11.5-17.6,20H422.9z"/>
				<g>
					<g>
						<path className="st4" d="M397.6,432.8l53.7-42.1c0.5-0.4,0.6-1.2,0.2-1.7c-0.4-0.5-1.2-0.6-1.7-0.2l-56.1,44H397.6z"/>
					</g>
				</g>
			</g>
			<g>
				<path className="st0" d="M407.9,432.8c0.2-0.3,0.4-0.7,0.6-1.1c2.1-4.4,2.8-9.2,0.2-13.9c-8.1-14.8,9.1-12.6,13.7-23.5
					c5.4-12.5-5.4-19.9-0.4-28.8c6.9-12.3,2.1-30.7-11.5-23.2c-13.7,7.5-10,22-22,24.3c-11.9,2.3-19.3,11.7-14.9,21.4
					c4.4,9.8,8.2,16.7-2.6,23.9c-7.4,5-11,14.2-9,20.8H407.9z"/>
				<g>
					<path className="st3" d="M382.9,432.8l27.6-69.2c0.2-0.6-0.1-1.3-0.7-1.6c-0.6-0.2-1.3,0.1-1.6,0.7l-28,70.1H382.9z"/>
				</g>
			</g>
		</g>
	</g>
	<g>
		<g>
			<path className="st5" d="M285.5,434.5H111.5c-3.6,0-6.5-2.9-6.5-6.5V174c0-3.6,2.9-6.5,6.5-6.5h174.1c3.6,0,6.5,2.9,6.5,6.5v254
				C292,431.6,289.1,434.5,285.5,434.5z"/>
		</g>
		<g>
			<path className="st6" d="M272.2,419H124.9c-3.6,0-6.5-2.9-6.5-6.5V151c0-3.6,2.9-6.5,6.5-6.5h147.3c3.6,0,6.5,2.9,6.5,6.5v261.5
				C278.6,416.1,275.7,419,272.2,419z"/>
		</g>
		<g>
			<path className="st5" d="M139.1,144.6L139.1,144.6h118.9l0,0c0-2.2-1.8-4-4-4H143C140.8,140.6,139.1,142.4,139.1,144.6z"/>
		</g>
		<g>
			<path className="st5" d="M252.3,408.1H144.7c-0.7,0-1.2-0.5-1.2-1.2v-1.4c0-0.7,0.5-1.2,1.2-1.2h107.6c0.7,0,1.2,0.5,1.2,1.2v1.4
				C253.5,407.5,253,408.1,252.3,408.1z"/>
		</g>
		<g>
			<g>
				<path className="st0" d="M262.3,172.8v68c0,3-2.4,5.4-5.4,5.4H140.1c-0.6,0-1.2-0.1-1.7-0.3c-2.2-0.7-3.7-2.7-3.7-5.1v-68
					c0-3,2.4-5.4,5.4-5.4h116.8C259.9,167.4,262.3,169.8,262.3,172.8z"/>
				<path className="st7" d="M251.3,167.4l-78.8,78.8h-32.3c-0.6,0-1.2-0.1-1.7-0.3l78.5-78.6H251.3z"/>
				<polygon className="st7" points="184.2,167.4 134.7,216.9 134.7,205.6 172.9,167.4 				"/>
				<polygon className="st7" points="262.3,196.8 262.3,208.1 224.2,246.2 212.9,246.2 				"/>
			</g>
			<g>
				<path className="st0" d="M165.2,264.9h-25.8c-2.7,0-4.9-2.2-4.9-4.9l0,0c0-2.7,2.2-4.9,4.9-4.9h25.8c2.7,0,4.9,2.2,4.9,4.9l0,0
					C170.1,262.7,167.9,264.9,165.2,264.9z"/>
				<path className="st0" d="M211.4,264.9h-25.8c-2.7,0-4.9-2.2-4.9-4.9l0,0c0-2.7,2.2-4.9,4.9-4.9h25.8c2.7,0,4.9,2.2,4.9,4.9l0,0
					C216.3,262.7,214.1,264.9,211.4,264.9z"/>
				<path className="st0" d="M257.6,264.9h-25.8c-2.7,0-4.9-2.2-4.9-4.9l0,0c0-2.7,2.2-4.9,4.9-4.9h25.8c2.7,0,4.9,2.2,4.9,4.9l0,0
					C262.5,262.7,260.3,264.9,257.6,264.9z"/>
			</g>
			<g>
				<g>
					<path className="st0" d="M167,296.1h-31c-1.5,0-2.8-1.4-2.8-3.1v-14.9c0-1.7,1.2-3.1,2.8-3.1h31c1.5,0,2.8,1.4,2.8,3.1v14.9
						C169.8,294.8,168.5,296.1,167,296.1z"/>
					<path className="st0" d="M214,296.1h-31c-1.5,0-2.8-1.4-2.8-3.1v-14.9c0-1.7,1.2-3.1,2.8-3.1h31c1.5,0,2.8,1.4,2.8,3.1v14.9
						C216.7,294.8,215.5,296.1,214,296.1z"/>
					<path className="st0" d="M261,296.1h-31c-1.5,0-2.8-1.4-2.8-3.1v-14.9c0-1.7,1.2-3.1,2.8-3.1h31c1.5,0,2.8,1.4,2.8,3.1v14.9
						C263.7,294.8,262.5,296.1,261,296.1z"/>
				</g>
				<g>
					<path className="st0" d="M167,329.1h-31c-1.5,0-2.8-1.4-2.8-3.1v-14.9c0-1.7,1.2-3.1,2.8-3.1h31c1.5,0,2.8,1.4,2.8,3.1v14.9
						C169.8,327.8,168.5,329.1,167,329.1z"/>
					<path className="st0" d="M214,329.1h-31c-1.5,0-2.8-1.4-2.8-3.1v-14.9c0-1.7,1.2-3.1,2.8-3.1h31c1.5,0,2.8,1.4,2.8,3.1v14.9
						C216.7,327.8,215.5,329.1,214,329.1z"/>
					<path className="st0" d="M261,329.1h-31c-1.5,0-2.8-1.4-2.8-3.1v-14.9c0-1.7,1.2-3.1,2.8-3.1h31c1.5,0,2.8,1.4,2.8,3.1v14.9
						C263.7,327.8,262.5,329.1,261,329.1z"/>
				</g>
				<g>
					<path className="st0" d="M167,362.1h-31c-1.5,0-2.8-1.4-2.8-3.1v-14.9c0-1.7,1.2-3.1,2.8-3.1h31c1.5,0,2.8,1.4,2.8,3.1v14.9
						C169.8,360.8,168.5,362.1,167,362.1z"/>
					<path className="st0" d="M214,362.1h-31c-1.5,0-2.8-1.4-2.8-3.1v-14.9c0-1.7,1.2-3.1,2.8-3.1h31c1.5,0,2.8,1.4,2.8,3.1v14.9
						C216.7,360.8,215.5,362.1,214,362.1z"/>
					<path className="st0" d="M261,362.1h-31c-1.5,0-2.8-1.4-2.8-3.1v-14.9c0-1.7,1.2-3.1,2.8-3.1h31c1.5,0,2.8,1.4,2.8,3.1v14.9
						C263.7,360.8,262.5,362.1,261,362.1z"/>
				</g>
				<g>
					<path className="st2" d="M167,394.5h-31c-1.5,0-2.8-1.4-2.8-3.1v-14.9c0-1.7,1.2-3.1,2.8-3.1h31c1.5,0,2.8,1.4,2.8,3.1v14.9
						C169.8,393.1,168.5,394.5,167,394.5z"/>
					<path className="st1" d="M214,394.5h-31c-1.5,0-2.8-1.4-2.8-3.1v-14.9c0-1.7,1.2-3.1,2.8-3.1h31c1.5,0,2.8,1.4,2.8,3.1v14.9
						C216.7,393.1,215.5,394.5,214,394.5z"/>
					<path className="st8" d="M261,394.5h-31c-1.5,0-2.8-1.4-2.8-3.1v-14.9c0-1.7,1.2-3.1,2.8-3.1h31c1.5,0,2.8,1.4,2.8,3.1v14.9
						C263.7,393.1,262.5,394.5,261,394.5z"/>
				</g>
			</g>
		</g>
	</g>
	<g>
		<g>
			<g>
				<g>
					<path className="st9" d="M420.7,400.3l6.6,8.9c0,0-1.3,3.9-6.4,6.8l-7.9-10.3L420.7,400.3z"/>
					<g>
						<g>
							<path className="st2" d="M422.1,413.4c0,0-3.2-0.7-4.3,0.3c-1.1,1-4.2,15.4-6.8,18.5c-2.6,3.1-0.1,4.8,1.5,5.5
								c1.6,0.7,24.6-20.5,24.6-20.5s-5.4-7.5-8.1-9C426.4,406.6,425,411.9,422.1,413.4z"/>
						</g>
						<g>
							<g>
								<path className="st10" d="M421.4,421.3c0.1-0.1,0.3-0.2,0.3-0.3c0.1-0.3,0-0.6-0.3-0.7c-0.1,0-2.4-0.9-4.2-0.5
									c-2.4,0.5-3,2.5-3,2.6c-0.1,0.3,0.1,0.6,0.4,0.7c0.3,0.1,0.6-0.1,0.7-0.4c0-0.1,0.4-1.4,2.2-1.8c1.5-0.3,3.6,0.5,3.6,0.5
									C421.1,421.4,421.2,421.4,421.4,421.3z"/>
							</g>
							<g>
								<path className="st10" d="M421.7,419.1c0.1-0.1,0.3-0.2,0.3-0.3c0.1-0.3,0-0.6-0.3-0.7c-0.1,0-2.4-0.9-4.2-0.5
									c-2.4,0.5-3,2.5-3,2.6c-0.1,0.3,0.1,0.6,0.4,0.7c0.3,0.1,0.6-0.1,0.7-0.4c0-0.1,0.4-1.4,2.2-1.8c1.5-0.3,3.6,0.5,3.6,0.5
									C421.4,419.2,421.6,419.1,421.7,419.1z"/>
							</g>
							<g>
								<path className="st10" d="M420.4,423.7c0.1-0.1,0.3-0.2,0.3-0.3c0.1-0.3,0-0.6-0.3-0.7c-0.1,0-2.4-0.9-4.2-0.5
									c-2.4,0.5-3,2.5-3,2.6c-0.1,0.3,0.1,0.6,0.4,0.7c0.3,0.1,0.6-0.1,0.7-0.4c0-0.1,0.4-1.4,2.2-1.8c1.5-0.3,3.6,0.5,3.6,0.5
									C420.1,423.7,420.3,423.7,420.4,423.7z"/>
							</g>
						</g>
					</g>
				</g>
				<g>
					<path className="st11" d="M380.4,280.4l4.8,58.5c0,0,7.8,9.8,13.5,20.6c4.7,9.1,25,41.7,25,41.7l-10.2,8l-51.1-60.1l-10-70.1
						L380.4,280.4z"/>
				</g>
			</g>
			<g>
				<g>
					<path className="st9" d="M367.2,415.2l-0.8,11.3c0,0-3.6,2.3-9.5,1.3l0.7-13.3L367.2,415.2z"/>
					<g>
						<g>
							<path className="st2" d="M358.9,426.3c0,0-2-2.7-3.7-2.6c-1.6,0.1-14,10.1-18.3,10.9c-4.3,0.8-3.4,4-2.6,5.6
								c0.8,1.6,33.9,0,33.9,0s1-10.7-0.1-13.7C367,423.5,362.3,427,358.9,426.3z"/>
						</g>
						<g>
							<g>
								<path className="st10" d="M352.6,432.2c0.1,0,0.3,0,0.4,0c0.3-0.1,0.4-0.5,0.2-0.8c0-0.1-1.2-2.3-2.8-3.2c-2.2-1.2-4,0-4,0
									c-0.3,0.2-0.3,0.5-0.2,0.8c0.2,0.3,0.5,0.3,0.8,0.2c0,0,1.3-0.8,2.8,0c1.3,0.7,2.4,2.7,2.4,2.7
									C352.4,432.1,352.5,432.2,352.6,432.2z"/>
							</g>
							<g>
								<path className="st10" d="M354.4,430.7c0.1,0,0.3,0,0.4,0c0.3-0.1,0.4-0.5,0.2-0.8c0-0.1-1.2-2.3-2.8-3.2c-2.2-1.2-4,0-4,0
									c-0.3,0.2-0.3,0.5-0.2,0.8c0.2,0.3,0.5,0.3,0.8,0.2c0,0,1.3-0.8,2.8,0c1.3,0.7,2.4,2.7,2.4,2.7
									C354.1,430.6,354.2,430.7,354.4,430.7z"/>
							</g>
							<g>
								<path className="st10" d="M350.3,433.4c0.1,0,0.3,0,0.4,0c0.3-0.1,0.4-0.5,0.2-0.8c0-0.1-1.2-2.3-2.8-3.2c-2.2-1.2-4,0-4,0
									c-0.3,0.2-0.3,0.5-0.2,0.8c0.2,0.3,0.5,0.3,0.8,0.2c0,0,1.3-0.8,2.8,0c1.3,0.7,2.4,2.7,2.4,2.7
									C350,433.3,350.1,433.4,350.3,433.4z"/>
							</g>
						</g>
					</g>
				</g>
				<g>
					<g>
						<path className="st12" d="M412.3,282.9c0,0-13.3,43.3-29.8,66.5c0,0-2.9,22.8-7.3,34.9c-1.9,5.3-7.2,37-7.2,37l-2-0.3l-1.2-0.2
							l-8.7-1.5l5.6-75.5l20.5-59.3l24.8-1.3l1.3-0.1L412.3,282.9z"/>
					</g>
					<g>
						<path className="st11" d="M408.7,283.1L380,349.3c0,0.1-4.5,18.2-7,30.9c-2.3,11.3-5.7,31-6.8,40.7l-1.2-0.2
							c1-9.8,4.4-29.2,6.8-40.8c2.6-12.7,7.1-30.8,7.1-31l28.5-65.8L408.7,283.1z"/>
					</g>
				</g>
			</g>
			<g>
				<path className="st8" d="M346.8,183.8L333.5,210l14-1.2C347.6,208.8,348.9,192.9,346.8,183.8z"/>
				<g>
					<g>
						<g>
							<path className="st1" d="M413.6,284.4c-7,2.6-14,4.4-21.1,5.6c-0.3,0.1-0.6,0.1-1,0.2c-0.2,0-0.4,0.1-0.5,0.1
								c-0.4,0.1-0.8,0.1-1.1,0.2c-0.4,0.1-0.8,0.1-1.3,0.2c-4.8,0.7-9.7,1-14.6,1c-1,0-2,0-3,0h-0.2c-0.3,0-0.5,0-0.8,0
								c-0.2,0-0.3,0-0.5,0c-5.7-0.2-11.5-0.8-17.3-1.8c-0.1-1.3-0.3-3.2-0.5-5.6c0-0.4-0.1-0.9-0.1-1.4c-0.3-3.4-0.6-7.7-1-12.5
								c0-0.4-0.1-0.8-0.1-1.3c-0.3-3.2-0.5-6.6-0.8-10.2c0-0.4-0.1-0.8-0.1-1.3c-0.3-3.7-0.6-7.5-0.8-11.4
								c-0.2-2.4-0.3-4.8-0.5-7.1c-0.2-2.4-0.3-4.9-0.5-7.3c0-0.5-0.1-1.1-0.1-1.6c-1.4-22.8-2.3-43.9-0.9-46.3c1-1.7,3.3-3.8,6.1-6
								c0.4-0.3,0.7-0.5,1-0.8c1.2-0.9,11.2-5.3,12.5-6.2l10.8-1.7c0.1,0,10.8,2.7,10.9,2.7c0.5,0.2,0.9,0.4,1.4,0.7
								c4.1,1.9,8.1,3.9,10.5,5.7c0.3,0.3,0.6,0.5,0.9,0.8c0.2,0.2,0.4,0.4,0.6,0.6c0.1,0.2,0.3,0.5,0.5,0.9
								c1.7,4.7,4.1,23.5,6.2,43.9c0.1,0.5,0.1,1,0.1,1.5c0.1,0.5,0.1,1,0.2,1.5c0,0.5,0.1,1,0.1,1.5c0.1,0.6,0.1,1.3,0.2,2
								c0,0.4,0.1,0.9,0.1,1.3c0,0.2,0,0.5,0.1,0.7c0,0.2,0,0.3,0,0.5c0.1,0.9,0.2,1.9,0.3,2.9c0.1,0.8,0.2,1.6,0.3,2.4
								c0.8,8.1,1.5,15.9,2.1,22.9c0.2,2,0.3,3.9,0.5,5.7c0,0.4,0.1,0.8,0.1,1.2C412.9,275.8,413.4,281.5,413.6,284.4z"/>
						</g>
					</g>
				</g>
				<path className="st8" d="M411.7,261.5c-9.1,13.1-20.5,22.5-20.5,22.5l-2.6-18.8c3.7-7.4,12.2-23.5,19.7-39.3c0.1,0.5,0.1,1,0.2,1.5
					c0,0.5,0.1,1,0.1,1.5c0.1,0.6,0.1,1.3,0.2,2c0,0.4,0.1,0.9,0.1,1.3c0,0.2,0,0.5,0.1,0.7c0,0.2,0,0.3,0,0.5
					c0.1,0.9,0.2,1.9,0.3,2.9c0.1,0.8,0.2,1.6,0.3,2.4C410.3,246.7,411.1,254.5,411.7,261.5z"/>
				<path className="st8" d="M364.8,203l-12.6,0.4c0,0,0.9,15.2,7.5,14.2C366.4,216.5,364.8,203,364.8,203z"/>
				<g>
					<path className="st8" d="M399,267.6C399,267.6,399,267.6,399,267.6c-11.8,1-22.3-3.5-29.1-7.5c-7.3-4.3-11.9-8.8-11.9-8.9
						c-0.2-0.2-0.2-0.6,0-0.8c0.2-0.2,0.6-0.2,0.8,0c0,0,4.6,4.5,11.7,8.7c6.6,3.8,16.9,8.2,28.4,7.3c0.3,0,0.6,0.2,0.6,0.5
						C399.5,267.3,399.3,267.6,399,267.6z"/>
				</g>
				<g>
					<path className="st8" d="M387,272.7c-10.2,0.9-20.9-4.1-21.4-4.3c-0.3-0.1-0.4-0.5-0.3-0.8c0.1-0.3,0.5-0.4,0.8-0.3
						c0.1,0.1,12.7,5.9,23.3,3.8c0.3-0.1,0.6,0.1,0.7,0.5c0.1,0.3-0.1,0.6-0.5,0.7C388.7,272.5,387.9,272.6,387,272.7z"/>
				</g>
				<g>
					<polygon className="st10" points="368.8,255.6 375.6,271.7 381.8,256.2 374.4,191.6 374.1,189.2 371.2,189 371.1,192.3 					"/>
					<polygon className="st13" points="371.1,192.3 372.6,194 374.4,191.6 374.1,189.2 371.2,189 					"/>
					<polygon className="st10" points="377.6,185.4 372.3,191.5 368,184.9 371.2,178.3 					"/>
				</g>
				<path className="st8" d="M378.8,168.3l1.7,1c0.5,0.3,0.9,0.6,1.4,0.9c1.3,1,1.9,1.7,1.7,3.7c0,0.3-0.1,0.6-0.1,0.8l0,0l-1.8,15.3
					l-10.5-11.8C371.2,178.3,377.8,175.3,378.8,168.3z"/>
				<path className="st8" d="M366.4,170c0,0-4,4.5-2.3,9.3l2.7,8.1l4.3-9.1C371.2,178.3,367.3,176.4,366.4,170z"/>
			</g>
			<g>
				<path className="st14" d="M386.2,140.2c0.8,9.5-4.4,16.5-13.9,17.3s-16.7-5.6-17.5-15.1c-0.8-9.5,4.2-17.1,13.6-18
					C379.7,123.5,385.3,130.7,386.2,140.2z"/>
				<path className="st14" d="M385.6,145.9c0,0,1.9-2.7,1-9c-0.8-6.4-3.1-8-3.1-8s2.3-4.8-0.3-5.9c-2.6-1.1-4.6,0.4-4.6,0.4
					s1.6-3-0.3-3.2c-1.9-0.2-4.3,1.7-4.3,1.7s-13.3-3.7-17.1-0.5c-3.8,3.2-0.4,11.4,0.8,12.2L385.6,145.9z"/>
				<g>
					<path className="st15" d="M384.4,144.5c0,0,2.3-3.7,4.5-1c2.2,2.7,0.2,11.5-4.8,9.9L384.4,144.5z"/>
					<g>
						<path className="st16" d="M385,150.6c0.2,0,0.3-0.1,0.4-0.3c0.5-2.7,3.2-4,3.2-4c0.2-0.1,0.3-0.3,0.2-0.5
							c-0.1-0.2-0.3-0.3-0.5-0.2c-0.1,0.1-3,1.5-3.6,4.6c0,0.2,0.1,0.4,0.3,0.5C384.9,150.6,384.9,150.6,385,150.6z"/>
					</g>
					<g>
						<path className="st16" d="M387.6,149c0.1,0,0.1,0,0.2-0.1c0.2-0.1,0.2-0.4,0.1-0.6c0,0-0.6-0.7-1.6-1.1c-0.2-0.1-0.4,0-0.5,0.3
							c-0.1,0.2,0,0.4,0.3,0.5c0.8,0.3,1.2,0.8,1.2,0.8C387.3,149,387.5,149,387.6,149z"/>
					</g>
				</g>
				<g>
					<path className="st15" d="M357.3,146.8c0,0-2.9-3.3-4.6-0.2c-1.7,3.1,1.8,11.4,6.4,8.9L357.3,146.8z"/>
					<g>
						<g>
							<g>
								<path className="st16" d="M357.8,152.9c-0.2,0-0.3-0.1-0.4-0.3c-1-2.6-3.8-3.4-3.8-3.4c-0.2-0.1-0.3-0.3-0.3-0.5
									c0.1-0.2,0.3-0.3,0.5-0.3c0.1,0,3.3,0.9,4.4,3.9c0.1,0.2,0,0.4-0.2,0.5C357.8,152.9,357.8,152.9,357.8,152.9z"/>
							</g>
						</g>
					</g>
					<g>
						<g>
							<path className="st16" d="M354.9,151.8c-0.1,0-0.2,0-0.2,0c-0.2-0.1-0.3-0.4-0.2-0.5c0,0,0.4-0.8,1.4-1.4c0.2-0.1,0.4,0,0.6,0.2
								c0.1,0.2,0,0.4-0.2,0.6c-0.8,0.4-1.1,1-1.1,1C355.1,151.8,355,151.8,354.9,151.8z"/>
						</g>
					</g>
				</g>
				<path className="st17" d="M365.7,162.2l0.7,8.5c0,0-0.5,8.1,6,7.5c3.4-0.3,6.5-7.6,6.5-7.6l-0.8-8.8L365.7,162.2z"/>
				<path className="st15" d="M365.7,162.2l0.3,3.8c2.5,2.4,6.7,2.6,12.7,1.2l-0.5-5.5L365.7,162.2z"/>
				<path className="st17" d="M354.9,141.1c0.4,3.3,1.1,7.4,2,10.7c0.2,0.8,0.5,1.6,0.7,2.3c2.3,6.1,7.8,16.5,19.9,10.9
					c5.4-2.5,7.4-8.9,8-15.2c0.4-4.3,0.1-8.7-0.2-11.7c-0.3-3.1-2.3-5.9-5.2-7.2c-7.8-3.6-15.5-1.3-20.4,1.1
					C356.3,133.6,354.3,137.3,354.9,141.1z"/>
				<path className="st14" d="M375.5,145.7c0.1,0.9,0.6,1.6,1.2,1.6c0.6-0.1,1-0.8,0.9-1.7c-0.1-0.9-0.6-1.6-1.2-1.6
					C375.8,144,375.4,144.8,375.5,145.7z"/>
				<path className="st14" d="M363.3,146.8c0.1,0.9,0.6,1.6,1.2,1.6c0.6-0.1,1-0.8,0.9-1.7c-0.1-0.9-0.6-1.6-1.2-1.6
					C363.7,145.1,363.3,145.9,363.3,146.8z"/>
				<path className="st14" d="M361.1,141.3c0,0,3.2-1.6,5.8-0.7l-0.1,1.4c0,0-3.8,0-5.6,0.9C361,142.4,360.9,141.9,361.1,141.3z"/>
				<path className="st14" d="M380.3,139.6c0,0-3.4-1-5.9,0.3l0.4,1.4c0,0,3.7-0.6,5.7,0C380.6,140.7,380.6,140.2,380.3,139.6z"/>
				<g>
					<path className="st15" d="M371.1,153.3c0.7,0,1.4-0.2,1.5-0.3c0.2-0.1,0.3-0.3,0.2-0.5c-0.1-0.2-0.3-0.3-0.5-0.2
						c-0.4,0.1-1.3,0.3-1.6,0.1c-0.1,0-0.2-0.1-0.2-0.4c-0.1-1.4,0.5-6.2,0.5-6.2c0-0.2-0.1-0.4-0.4-0.5c-0.2,0-0.4,0.1-0.5,0.4
						c0,0.2-0.6,4.9-0.5,6.4c0,0.6,0.3,0.9,0.6,1C370.5,153.2,370.8,153.3,371.1,153.3z"/>
				</g>
				<path className="st10" d="M376.8,155.3c-0.2,1.7-1,4.9-4.7,5.2c-3.7,0.3-5-2.4-5.5-4.3L376.8,155.3z"/>
				<g>
					<path className="st15" d="M372.6,162.9c-1,0.1-2-0.4-2-0.4c-0.2-0.1-0.3-0.3-0.2-0.5c0.1-0.2,0.3-0.3,0.5-0.2c0,0,0.8,0.4,1.6,0.3
						c0.7-0.1,1.4-0.6,1.4-0.6c0.2-0.1,0.4-0.1,0.6,0.1c0.1,0.2,0.1,0.4-0.1,0.6C374.4,162.2,373.6,162.8,372.6,162.9z"/>
				</g>
				<path className="st14" d="M355.8,147l1.8-0.2c-0.4-1.8,0.1-4.1,0.5-5.6c1-3.5-1.8-4.7,0.2-6.6c2-1.9,7.4-1.6,11.2-2.1
					c3.7-0.4,9.8-0.9,11.3-0.7c1.5,0.2,0.9,2.7,0.5,4.7c-0.4,1.9,2.1,3.8,2.7,5.7c0.2,0.6,0.2,1.4,0.2,2.3l1.5-0.1
					c0-2.4-0.2-4.6-0.4-6.4c-0.3-3.1-2.3-5.9-5.2-7.2c-7.8-3.6-15.5-1.3-20.4,1.1c-3.5,1.7-5.4,5.4-4.9,9.2
					C355.1,142.9,355.4,145,355.8,147z"/>
				<g>
					<g>
						<path className="st10" d="M364.8,152.5c-2.6,0.2-4.9-1.7-5.1-4.3c-0.2-2.6,1.7-4.9,4.3-5.1c2.6-0.2,4.9,1.7,5.1,4.3
							C369.3,150,367.4,152.3,364.8,152.5z M364,143.8c-2.2,0.2-3.8,2.1-3.6,4.3c0.2,2.2,2.1,3.8,4.3,3.6c2.2-0.2,3.8-2.1,3.6-4.3
							C368.2,145.3,366.2,143.6,364,143.8z"/>
					</g>
					<g>
						<path className="st10" d="M377.7,151.4c-2.6,0.2-4.9-1.7-5.1-4.3c-0.2-2.6,1.7-4.9,4.3-5.1c2.6-0.2,4.9,1.7,5.1,4.3
							C382.2,148.9,380.3,151.2,377.7,151.4z M376.9,142.7c-2.2,0.2-3.8,2.1-3.6,4.3c0.2,2.2,2.1,3.8,4.3,3.6
							c2.2-0.2,3.8-2.1,3.6-4.3C381,144.1,379.1,142.5,376.9,142.7z"/>
					</g>
					<g>
						<path className="st10" d="M360.3,146.6c-0.1,0-0.2,0-0.3-0.1l0,0c0,0-2.3-1.9-5.1-1c-0.2,0.1-0.4,0-0.5-0.2
							c-0.1-0.2,0-0.4,0.2-0.5c3.1-1,5.7,1.1,5.8,1.1c0.2,0.1,0.2,0.4,0,0.5C360.5,146.6,360.4,146.6,360.3,146.6z"/>
					</g>
					<g>
						<path className="st10" d="M381.1,144.8c-0.1,0-0.2,0-0.3-0.1c-0.1-0.2-0.1-0.4,0.1-0.5c0.1-0.1,3.3-2.5,6.2-2.3
							c0.2,0,0.4,0.2,0.3,0.4c0,0.2-0.2,0.4-0.4,0.3c-2.6-0.2-5.6,2.1-5.6,2.2C381.3,144.8,381.2,144.8,381.1,144.8z"/>
					</g>
					<g>
						<path className="st10" d="M372.7,146c0,0-1-1.1-2.1-1c-1.1,0.1-1.8,1.3-1.8,1.4l-0.6-0.3c0-0.1,0.9-1.6,2.4-1.7
							c1.5-0.1,2.7,1.2,2.8,1.3L372.7,146z"/>
					</g>
				</g>
			</g>
			<g>
				<g>
					<path className="st2" d="M401.4,206.8l-5.3,72.6c-0.2,3.3-3.1,5.7-6.3,5.5l-123.2-9c-1.5-0.1-2.8-0.7-3.7-1.7
						c-1.2-1.2-1.9-2.8-1.7-4.6l5.3-72.6c0.2-3.3,3.1-5.7,6.3-5.5l123.2,9C399.2,200.7,401.7,203.5,401.4,206.8z"/>
					
						<rect x="324.6" y="151.2" transform="matrix(7.295924e-02 -0.9973 0.9973 7.295924e-02 90.033 534.7061)" className="st14" width="16.1" height="135.4"/>
					<polygon className="st1" points="386.7,273.7 355,271.3 355.8,260.2 387.5,262.5 387.5,262.5 					"/>
					<g>
						<path className="st1" d="M280.6,242.4l-8.9-0.7c-0.4,0-0.7-0.4-0.7-0.8l0.3-4.7c0-0.4,0.4-0.7,0.8-0.7l8.9,0.7
							c0.4,0,0.7,0.4,0.7,0.8l-0.3,4.7C281.3,242.1,281,242.4,280.6,242.4z"/>
						<path className="st1" d="M298.8,243.7l-8.9-0.7c-0.4,0-0.7-0.4-0.7-0.8l0.3-4.7c0-0.4,0.4-0.7,0.8-0.7l8.9,0.7
							c0.4,0,0.7,0.4,0.7,0.8l-0.3,4.7C299.5,243.4,299.1,243.7,298.8,243.7z"/>
						<path className="st1" d="M316.9,245l-8.9-0.7c-0.4,0-0.7-0.4-0.7-0.8l0.3-4.7c0-0.4,0.4-0.7,0.8-0.7l8.9,0.7
							c0.4,0,0.7,0.4,0.7,0.8l-0.3,4.7C317.7,244.8,317.3,245.1,316.9,245z"/>
						<path className="st1" d="M335.1,246.4l-8.9-0.7c-0.4,0-0.7-0.4-0.7-0.8l0.3-4.7c0-0.4,0.4-0.7,0.8-0.7l8.9,0.7
							c0.4,0,0.7,0.4,0.7,0.8l-0.3,4.7C335.8,246.1,335.5,246.4,335.1,246.4z"/>
						<path className="st1" d="M353.3,247.7l-8.9-0.7c-0.4,0-0.7-0.4-0.7-0.8l0.3-4.7c0-0.4,0.4-0.7,0.8-0.7l8.9,0.7
							c0.4,0,0.7,0.4,0.7,0.8L354,247C354,247.4,353.7,247.7,353.3,247.7z"/>
						<path className="st1" d="M371.5,249l-8.9-0.7c-0.4,0-0.7-0.4-0.7-0.8l0.3-4.7c0-0.4,0.4-0.7,0.8-0.7l8.9,0.7
							c0.4,0,0.7,0.4,0.7,0.8l-0.3,4.7C372.2,248.8,371.9,249.1,371.5,249z"/>
						<path className="st1" d="M389.6,250.4l-8.9-0.7c-0.4,0-0.7-0.4-0.7-0.8l0.3-4.7c0-0.4,0.4-0.7,0.8-0.7l8.9,0.7
							c0.4,0,0.7,0.4,0.7,0.8l-0.3,4.7C390.4,250.1,390,250.4,389.6,250.4z"/>
					</g>
					
						<rect x="332.2" y="136.2" transform="matrix(7.289717e-02 -0.9973 0.9973 7.289717e-02 106.0554 521.8887)" className="st1" width="3.1" height="135.4"/>
					<path className="st1" d="M285,267.8l-13.6-1c-1.3-0.1-2.2-1.2-2.1-2.5l1-13.6c0.1-1.3,1.2-2.2,2.5-2.1l13.6,1
						c1.3,0.1,2.2,1.2,2.1,2.5l-1,13.6C287.4,267,286.3,267.9,285,267.8z"/>
					<path className="st1" d="M349.2,267.9l-55.6-4.1c-0.9-0.1-1.6-0.9-1.5-1.8l0.1-1.7c0.1-0.9,0.9-1.6,1.8-1.5l55.6,4.1
						c0.9,0.1,1.6,0.9,1.5,1.8l-0.1,1.7C350.9,267.2,350.1,267.9,349.2,267.9z"/>
					<path className="st18" d="M351.8,197.2l-89,76.9c-1.2-1.2-1.9-2.8-1.7-4.6l1.9-25.5l56.9-49.1L351.8,197.2z"/>
					<polygon className="st18" points="395.7,200.4 305.1,278.7 289.5,277.5 380,199.3 					"/>
				</g>
			</g>
			<g>
				<path className="st15" d="M312.3,276.3l-1.6,1.9c0,0-4.6-0.3-5-2.3c-0.2-0.7,0-1.5,0.6-1.8L312.3,276.3z"/>
				<path className="st17" d="M313.9,286.6c-2.3,0.3-4.5-0.8-5.5-2.8c-0.5-1.1-0.8-2.5-0.3-4.2c1.5-5.1,4.4-8.8,6.4-7.7
					c0.7,0.4,0.6,3.4-0.4,5.6c0,0,1.5-2.4,2.2-5.1c0.7-2.8,4.1-1.4,3.2,2c-0.9,3.5-1.2,4-1.2,4s1.6-2.6,1.8-4.3
					c0.2-1.7,2.9-1.2,2.3,2.1c-0.3,1.5-0.6,3.3-0.6,3.3s0.8-2.2,1.2-3.3c0.4-1.1,2-1.9,2.2,0.7c0.2,2,0.3,7.3-2.4,8.2
					C321.1,285.6,316.6,286.3,313.9,286.6z"/>
			</g>
			<g>
				<path className="st17" d="M359.8,283.2c-0.1-1.8,3.8-1.7,5.7-2.7c1.9-1.1,6.4-4.6,5.5-5.5c-0.8-0.9-2.1-1.6-3-2.1
					c-0.9-0.6-1.5-2.2-0.6-2.4c0.9-0.2,3.9,1.1,5.2,2.1c0.4,0.3,1.2,1.5,1.8,2c0.8,0.9,1.8,1.5,3,1.6c1-1.1,2.1-2.3,2.9-2.8
					c1.6,0.1,7,3.9,5.8,7c-1.4,1.9-3.5,4.1-3.5,4.1c-7.5,6.8-11.9,6.5-13.7,6.5c-1.8,0-2.2-2-2.2-2c-1.7-0.4-1.7-2-1.7-2
					c-2.6-0.7-2.2-2.4-2.2-2.4S359.9,285,359.8,283.2z"/>
				<g>
					<path className="st1" d="M415.3,248.8c0,0-6.6,20-28.2,31.8l-7.5-6.6c0,0,15.1-11.9,22.1-29.7c0-0.1,0.1-0.3,0.2-0.4l-0.1-0.6
						l-7.7-49.8c0,0,0.7-5.7,7.5-13.8C401.6,179.6,418.3,206.3,415.3,248.8z"/>
				</g>
				<g>
					<path className="st8" d="M407.9,246.2c-0.1,0.2-0.3,0.2-0.4,0.2c-0.1,0-0.2,0-0.3-0.1c-1.5-0.9-3.9-1.7-5.5-2.2
						c0-0.1,0.1-0.3,0.2-0.4l-0.1-0.6c1.7,0.5,4.3,1.4,6,2.4C408,245.7,408.1,246,407.9,246.2z"/>
				</g>
			</g>
		</g>
	</g>
</g>
<g id="DESIGNED_BY_FREEPIK">
</g>
</svg>
